# xmcd
#
# Track frame offsets: 
#        150
#        20968
#        47127
#        74501
#        127631
#        143351
#        157635
#        173026
#        196127
#        210467
#
# Disc length: 3202 seconds
#
# Revision: 5
# Processed by: cddbd v1.5.1PL0 Copyright (c) Steve Scherf et al.
# Submitted via: ExactAudioCopy v0.95a5
#
DISCID=7c0c800a
DTITLE=Various Artist - Hot Biscuits II
DYEAR=1998
DGENRE=Blues
TTITLE0=Luther Allison - You Can't Always Get What You Want
TTITLE1=Otis Rush - Part Time Love
TTITLE2=Larry McCray - Sunny Monday
TTITLE3=JGB - Tangled Up In Blue
TTITLE4=Angela Strehli - A Stand By Your Woman Man
TTITLE5=Phoebe Snow - Rockin' Pneumonia
TTITLE6=Jim Belushi and the Sacred Hearts - Smokin' Blues
TTITLE7=Larry McCray - Smooth Sailin'
TTITLE8=Angela Strehli - Give Me Love
TTITLE9=Etta James - Ball and Chain
EXTD=LABEL =Platinum Entertainment, Inc.\nID =5141614332\nUPC =7514
EXTD=16-1433-23\nCOPYRIGHT =1998
EXTT0=
EXTT1=
EXTT2=
EXTT3=
EXTT4=
EXTT5=
EXTT6=
EXTT7=
EXTT8=
EXTT9=
PLAYORDER=
